<?xml version="1.0" standalone="no"?>
<!DOCTYPE svg PUBLIC "-//W3C//DTD SVG 20010904//EN"
 "http://www.w3.org/TR/2001/REC-SVG-20010904/DTD/svg10.dtd">
<svg version="1.0" xmlns="http://www.w3.org/2000/svg"
 width="700.000000pt" height="700.000000pt" viewBox="0 0 700.000000 700.000000"
 preserveAspectRatio="xMidYMid meet">
<metadata>
Created by potrace 1.11, written by Peter Selinger 2001-2013
</metadata>
<g transform="translate(0.000000,700.000000) scale(0.100000,-0.100000)"
fill="#000000" stroke="none">
<path d="M323 4203 c2 -1330 6 -2431 9 -2448 3 -16 9 -57 13 -90 16 -132 23
-168 47 -240 45 -134 115 -250 206 -342 143 -146 332 -236 587 -279 85 -15
190 -18 710 -19 731 -3 806 -8 1008 -64 225 -64 369 -144 535 -298 l63 -59 62
59 c77 72 204 165 277 202 103 52 289 111 410 130 25 4 53 9 63 11 67 12 253
17 796 19 339 1 623 4 631 8 8 3 40 8 70 11 152 15 359 94 485 184 112 81 218
211 278 343 48 107 64 178 93 414 12 101 14 507 14 2580 0 1221 0 2237 0 2258
l0 37 -314 0 -314 0 -10 -69 c-47 -319 -422 -449 -647 -224 -70 69 -112 166
-114 261 l-1 32 -335 0 c-184 0 -335 -3 -335 -7 -14 -268 -230 -442 -480 -388
-135 29 -267 171 -285 305 -3 25 -7 54 -9 65 -3 20 -11 20 -337 20 l-334 0 -2
-40 c-9 -119 -84 -245 -178 -301 -92 -54 -175 -70 -269 -53 -122 22 -223 95
-275 200 -26 52 -34 82 -45 174 -3 19 -11 20 -338 23 l-335 2 -6 -60 c-10
-118 -97 -249 -198 -301 -90 -46 -208 -57 -296 -28 -50 16 -130 68 -170 110
-46 49 -81 125 -94 207 l-12 72 -314 0 -314 0 4 -2417z m358 2308 l177 -1 7
-37 c14 -76 71 -172 140 -236 157 -146 397 -172 581 -61 32 19 70 45 83 57 50
45 107 136 131 205 l24 71 136 3 c74 2 181 2 237 0 l101 -3 7 -37 c7 -42 66
-153 105 -198 88 -102 227 -165 363 -166 137 -1 243 41 343 136 66 63 127 165
140 231 l6 35 237 0 237 0 18 -60 c36 -119 132 -233 246 -290 213 -106 471
-47 611 140 37 50 76 130 84 173 l7 37 239 0 238 0 11 -41 c44 -161 178 -298
338 -345 31 -8 92 -16 136 -16 208 -1 392 130 461 328 l24 69 53 5 c29 3 125
4 213 2 l160 -3 -1 -2202 c-1 -1925 -5 -2554 -18 -2576 -2 -3 -7 -38 -10 -78
-36 -395 -313 -678 -724 -739 -20 -3 -48 -8 -62 -11 -14 -3 -200 -7 -415 -9
-754 -8 -1010 -12 -1030 -17 -19 -4 -46 -9 -125 -22 -93 -16 -278 -77 -385
-127 -61 -28 -171 -101 -245 -162 -30 -26 -58 -46 -61 -46 -3 0 -23 15 -44 32
-164 141 -323 221 -563 283 -196 50 -178 49 -1222 59 -228 2 -425 6 -436 9
-12 3 -37 8 -55 11 -78 13 -98 18 -181 46 -134 46 -242 112 -330 204 -86 88
-165 238 -194 368 -13 58 -33 244 -39 363 -11 236 -8 4607 4 4614 5 4 23 6 38
5 15 -1 107 -3 204 -3z"/>
<path d="M1336 5270 c1 -278 2 -508 3 -512 0 -3 176 -6 390 -6 l389 1 50 76
c42 65 89 117 171 191 83 75 286 169 461 215 69 18 218 44 290 51 30 3 73 7
95 10 86 11 564 10 675 -2 431 -45 697 -149 878 -343 45 -48 103 -131 122
-173 l12 -25 393 -1 c300 -1 394 2 397 11 4 10 3 992 -1 1007 0 3 -974 6
-2164 6 l-2162 0 1 -506z"/>
<path d="M3337 5064 c-1 -1 -47 -5 -102 -8 -317 -22 -551 -89 -711 -202 -194
-137 -260 -337 -169 -513 22 -44 99 -126 151 -162 140 -96 415 -186 734 -240
63 -10 126 -21 140 -24 63 -12 77 -15 110 -19 127 -19 278 -58 338 -88 44 -22
101 -79 103 -101 0 -7 2 -21 4 -31 6 -30 -19 -79 -54 -109 -72 -60 -182 -90
-336 -89 -180 1 -320 46 -406 132 -41 42 -58 72 -94 177 -2 7 -30 10 -87 8
-89 -4 -267 -11 -493 -21 -261 -10 -250 -9 -253 -33 -8 -50 60 -204 127 -287
48 -61 154 -148 231 -192 61 -34 206 -85 290 -101 88 -18 106 -21 225 -37 172
-24 711 -23 845 1 14 2 57 9 95 15 391 60 675 250 755 504 17 55 15 172 -5
230 -41 119 -110 195 -265 288 -66 39 -282 116 -375 132 -16 3 -46 10 -65 16
-32 9 -374 72 -465 85 -54 8 -155 24 -181 29 -12 2 -38 7 -58 10 -201 32 -278
99 -214 188 37 53 114 80 242 86 249 10 390 -47 454 -187 l24 -53 172 6 c94 4
214 9 266 11 52 2 160 7 239 10 80 3 147 7 149 10 2 2 -4 30 -13 62 -44 153
-151 275 -312 357 -54 27 -176 70 -228 81 -153 31 -204 39 -344 51 -73 6 -458
13 -464 8z"/>
<path d="M2197 3212 c-3 -4 -5 -186 -6 -405 l0 -397 197 0 c195 0 2341 0 2395
0 l27 0 0 405 c0 278 -3 405 -11 405 -5 0 -37 -22 -70 -49 -162 -131 -392
-224 -670 -270 -171 -29 -277 -36 -539 -36 -271 0 -405 8 -580 36 -105 16
-123 20 -130 24 -4 2 -22 7 -41 10 -137 23 -343 119 -462 215 -85 68 -101 78
-110 62z"/>
<path d="M3856 2018 c-97 -21 -145 -89 -108 -153 22 -36 53 -52 152 -77 112
-28 132 -37 128 -62 -9 -60 -159 -61 -192 -1 -16 29 -19 30 -74 27 l-50 -4 10
-31 c26 -77 89 -110 209 -110 108 -1 173 26 196 81 38 91 -21 151 -174 177
-99 16 -143 54 -88 75 51 19 105 12 133 -18 22 -23 35 -27 75 -27 26 0 47 4
47 8 0 4 0 14 0 23 0 30 -67 82 -113 89 -81 11 -112 11 -151 3z"/>
<path d="M750 1980 l0 -36 73 0 72 1 3 -168 2 -167 55 0 55 0 0 164 c0 122 3
165 13 168 6 3 41 4 77 2 l66 -3 -1 38 0 38 -207 0 -208 0 0 -37z"/>
<path d="M1240 1813 l0 -203 53 0 53 0 -1 79 c-2 104 11 142 50 153 43 12 74
2 81 -26 3 -13 6 -64 7 -113 l2 -88 50 0 50 0 0 118 0 119 -31 27 c-36 33
-112 40 -168 17 -20 -8 -37 -12 -37 -8 -1 4 -3 30 -4 57 -1 28 -3 56 -4 62 -1
9 -17 12 -51 11 l-50 -3 0 -202z"/>
<path d="M5368 2001 c-2 -9 -2 -26 0 -38 4 -20 10 -23 53 -23 l49 0 0 40 0 41
-50 -2 c-35 -2 -50 -7 -52 -18z"/>
<path d="M2581 1908 c-24 -4 -52 -15 -62 -24 -18 -16 -19 -16 -19 5 0 20 -4
22 -47 19 l-48 -3 0 -145 0 -145 53 -3 52 -3 0 100 c0 90 2 102 22 121 23 21
54 26 78 10 11 -7 16 -35 18 -120 l4 -111 51 3 51 3 2 98 c1 108 8 123 59 132
51 9 56 -2 59 -121 l3 -109 51 -3 52 -3 0 110 c0 60 -4 121 -10 135 -21 56
-129 76 -197 36 -32 -19 -37 -19 -53 -5 -26 24 -70 32 -119 23z"/>
<path d="M3205 1910 c-94 -14 -156 -73 -157 -149 -1 -91 79 -154 196 -154 121
0 205 75 190 171 -15 92 -113 149 -229 132z m70 -74 c89 -38 64 -157 -34 -160
-93 -2 -123 112 -41 156 41 22 33 21 75 4z"/>
<path d="M4350 1910 c-95 -17 -135 -63 -135 -155 0 -54 4 -67 25 -90 35 -38
70 -54 127 -58 70 -5 136 16 169 56 l27 32 -53 8 c-47 6 -55 5 -67 -13 -25
-36 -123 -16 -123 24 0 19 20 22 135 20 55 0 103 3 106 9 4 5 2 28 -4 50 -10
42 -37 81 -69 98 -29 16 -101 25 -138 19z m84 -81 c43 -34 33 -44 -41 -43 -45
1 -68 5 -67 13 2 28 5 32 27 41 35 14 52 12 81 -11z"/>
<path d="M5693 1907 c-97 -16 -149 -99 -123 -196 23 -85 124 -124 250 -96 34
7 77 45 89 78 10 25 9 27 -18 27 -16 0 -36 2 -43 5 -8 3 -29 -8 -46 -25 -26
-25 -38 -29 -65 -25 -42 7 -67 38 -67 85 0 46 24 76 67 85 26 5 37 2 57 -18
21 -21 32 -24 66 -20 47 7 55 15 39 41 -30 48 -120 73 -206 59z"/>
<path d="M1750 1891 c-48 -25 -71 -61 -77 -115 -12 -105 56 -170 177 -169 69
1 99 11 138 46 34 31 27 44 -25 50 -39 4 -50 2 -61 -14 -26 -37 -122 -14 -122
29 0 15 13 17 112 16 62 -1 118 2 124 7 15 12 2 74 -24 108 -43 60 -168 82
-242 42z m156 -69 c15 -19 18 -32 7 -33 -59 -5 -133 -2 -133 7 0 14 22 41 40
47 24 10 72 -2 86 -21z"/>
<path d="M2110 1758 l0 -149 52 3 52 3 2 80 c0 44 4 90 8 103 9 27 48 44 81
36 20 -5 26 -1 38 28 10 23 11 35 3 40 -20 13 -86 8 -111 -8 -22 -14 -25 -14
-25 -1 0 11 -12 14 -50 14 l-50 0 0 -149z"/>
<path d="M4650 1759 l0 -149 50 0 c28 0 51 3 51 8 1 4 3 39 4 77 1 39 3 78 4
88 0 9 10 26 21 37 16 16 28 19 55 14 32 -6 35 -4 50 32 l16 38 34 -64 c19
-36 54 -102 77 -147 l43 -83 46 0 46 0 77 149 76 150 -54 0 -54 0 -47 -97
c-28 -57 -50 -91 -53 -82 -2 8 -22 52 -43 96 l-38 82 -107 0 c-80 0 -113 -3
-130 -15 -22 -14 -24 -14 -24 0 0 12 -11 16 -50 15 l-50 0 0 -149z"/>
<path d="M5369 1895 c-1 -8 -1 -62 -1 -120 0 -183 -6 -165 52 -165 l50 0 0
150 0 150 -50 0 c-37 0 -50 -4 -51 -15z"/>
<path d="M6062 1895 c-63 -28 -92 -75 -88 -146 2 -56 26 -94 77 -122 44 -25
151 -27 196 -3 32 16 73 54 73 67 0 3 -21 9 -47 12 -39 4 -52 2 -69 -14 -11
-10 -35 -19 -52 -19 -47 0 -99 58 -54 61 9 1 64 2 122 3 l105 1 -2 32 c-3 56
-31 100 -77 123 -50 24 -135 26 -184 5z m146 -72 c6 -9 12 -20 12 -25 0 -9 -2
-9 -79 -11 -64 -1 -74 12 -34 43 32 25 79 21 101 -7z"/>
<path d="M2661 1430 c-67 -15 -120 -75 -108 -121 15 -59 59 -85 189 -113 71
-16 108 -35 108 -55 0 -4 -9 -16 -20 -26 -16 -14 -36 -19 -80 -19 -63 1 -86
13 -101 51 -8 21 -13 23 -61 18 -28 -3 -53 -7 -55 -9 -6 -6 20 -60 40 -83 48
-54 235 -71 315 -29 46 24 74 72 67 116 -11 68 -64 100 -215 126 -49 9 -80 26
-80 45 0 12 10 21 28 25 15 3 33 8 41 10 26 8 90 -16 96 -36 5 -17 15 -20 61
-20 58 0 64 7 43 53 -18 41 -78 67 -161 71 -40 2 -88 0 -107 -4z"/>
<path d="M3270 1230 c0 -110 3 -201 8 -201 4 -1 28 -2 55 -3 l47 -2 1 36 c0
19 1 53 2 75 l2 39 87 4 c48 1 103 9 122 17 102 43 103 177 1 219 -22 10 -80
15 -179 15 l-146 2 0 -201z m247 121 c17 -1 43 -30 43 -47 0 -33 -34 -49 -108
-52 l-72 -3 0 49 c0 27 3 52 6 55 5 5 49 4 131 -2z"/>
<path d="M3953 1258 c-76 -151 -113 -226 -113 -232 0 -1 25 -1 56 -1 l56 0 23
46 24 46 101 -1 100 -1 23 -45 22 -45 58 0 c55 -1 69 8 48 31 -4 5 -50 91
-101 192 l-93 182 -59 0 -58 0 -87 -172z m167 22 c11 -23 25 -52 30 -65 9 -25
9 -25 -55 -25 l-65 0 32 65 c18 36 33 65 35 65 1 0 12 -18 23 -40z"/>
<path d="M3059 1108 c0 -2 -2 -20 -3 -40 -3 -41 1 -45 59 -44 40 1 40 1 43 44
l3 42 -50 0 c-28 0 -51 -1 -52 -2z"/>
<path d="M3679 1108 c-1 -2 -2 -20 -3 -40 -3 -41 2 -45 59 -44 40 1 40 1 43
44 l3 42 -50 0 c-28 0 -51 -1 -52 -2z"/>
<path d="M4429 1101 c-5 -40 -2 -71 6 -72 6 -1 29 -2 53 -4 l42 -2 0 42 0 42
-50 0 c-27 1 -50 -2 -51 -6z"/>
</g>
</svg>
