<?xml version="1.0" encoding="utf-8"?>
<!-- Generator: Adobe Illustrator 17.0.0, SVG Export Plug-In . SVG Version: 6.00 Build 0)  -->
<!DOCTYPE svg PUBLIC "-//W3C//DTD SVG 1.0//EN" "http://www.w3.org/TR/2001/REC-SVG-20010904/DTD/svg10.dtd">
<svg version="1.0" id="Layer_1" xmlns="http://www.w3.org/2000/svg" xmlns:xlink="http://www.w3.org/1999/xlink" x="0px" y="0px"
	 width="650px" height="650px" viewBox="0 0 650 650" enable-background="new 0 0 650 650" xml:space="preserve">
<g>
	<path fill="#010101" d="M325.029,616.515l-3.606-3.76c-0.16-0.166-16.168-16.689-33.687-23.631
		c-17.996-7.13-35.693-11.879-63.566-11.879h-87.388c-10.067,0-40.704,0-65.874-15.26c-25.511-15.468-34.625-39.489-37.779-56.917
		c-3.448-19.055-3.448-54.794-3.448-68.248V35.294l58.62,0.003l0.315,4.661c1.258,18.627,16.887,33.218,35.581,33.218
		s34.322-14.591,35.581-33.218l0.315-4.661l56.101-0.003l5.986,0.002l0.315,4.661c1.258,18.627,16.887,33.218,35.581,33.218
		s34.322-14.591,35.581-33.218l0.315-4.661l56.536-0.003l5.583,0.003l0.314,4.661c1.259,18.627,16.888,33.218,35.581,33.218
		s34.322-14.591,35.581-33.218l0.314-4.661l56.504-0.002l5.583,0.003l0.314,4.661c1.259,18.627,16.888,33.218,35.581,33.218
		s34.322-14.591,35.581-33.218l0.314-4.661l58.62-0.003V436.82c0,13.454,0,49.194-3.448,68.248
		c-3.153,17.428-12.268,41.449-37.778,56.917c-25.17,15.26-55.807,15.26-65.874,15.26h-87.389c-27.873,0-45.569,4.749-63.565,11.879
		c-17.574,6.964-33.526,23.463-33.686,23.629L325.029,616.515z M39.681,45.294V436.82c0,11.945,0,48.297,3.288,66.467
		c2.788,15.405,10.797,36.61,33.124,50.147c20.418,12.379,44.415,13.811,60.689,13.811h87.388c29.458,0,48.188,5.03,67.25,12.582
		c14.484,5.739,27.52,16.814,33.61,22.489c6.09-5.675,19.126-16.75,33.61-22.489c19.062-7.552,37.792-12.582,67.249-12.582h87.389
		c16.274,0,40.271-1.432,60.689-13.811c22.325-13.537,30.335-34.742,33.123-50.147c3.288-18.17,3.288-54.521,3.288-66.467V45.294
		h-39.515c-3.72,21.584-22.649,37.881-45.001,37.881s-41.281-16.297-45.001-37.881h-43.876
		c-3.72,21.584-22.649,37.881-45.001,37.881s-41.281-16.297-45.001-37.881h-43.908c-3.72,21.584-22.65,37.881-45.001,37.881
		s-41.281-16.297-45.001-37.881h-43.876c-3.72,21.584-22.65,37.881-45.001,37.881S82.915,66.878,79.195,45.294H39.681z"/>
</g>
<path fill="#010101" d="M398.081,376.129c-19.119,5.586-42.068,8.302-70.158,8.302c-50.094,0-84.816-6.898-106.151-21.09
	c-5.794-3.854-10.966-8.02-15.516-12.487h-2.662v75.542h242.872v-75.542h-1.536C433.081,362.005,417.338,370.502,398.081,376.129z"
	/>
<path fill="#010101" d="M123.99,113.668v95.037h73.133c3.049-6.662,7.497-13.006,13.354-18.982
	c10.742-10.965,25.599-19.1,45.417-24.865c18.078-5.257,41.461-7.813,71.488-7.813c37.582,0,66.07,4.814,87.092,14.717
	c17.684,8.335,30.603,20.922,38.131,36.942h73.465v-95.037H123.99z"/>
<g>
	<path fill="#07A5FF" d="M204.751,300.574l77.955-3.248c1.687,8.422,5.123,14.839,10.31,19.249
		c8.439,7.139,20.497,10.707,36.174,10.707c11.695,0,20.71-1.823,27.04-5.474c6.33-3.648,9.496-7.88,9.496-12.692
		c0-4.572-3.016-8.662-9.043-12.271c-6.031-3.609-20.017-7.017-41.962-10.226c-35.934-5.373-61.558-12.512-76.87-21.415
		c-15.436-8.903-23.151-20.251-23.151-34.047c0-9.062,3.948-17.625,11.847-25.686c7.896-8.061,19.774-14.396,35.631-19.009
		c15.854-4.611,37.589-6.918,65.203-6.918c33.882,0,59.715,4.192,77.503,12.572c17.784,8.382,28.365,21.715,31.742,40.002
		l-77.231,3.008c-2.052-7.94-6.362-13.715-12.932-17.324c-6.573-3.609-15.645-5.414-27.221-5.414c-9.527,0-16.702,1.344-21.523,4.03
		c-4.824,2.688-7.235,5.955-7.235,9.805c0,2.808,1.99,5.335,5.969,7.579c3.857,2.327,13.023,4.493,27.492,6.497
		c35.812,5.134,61.464,10.328,76.961,15.58c15.492,5.254,26.769,11.771,33.823,19.55c7.054,7.781,10.58,16.482,10.58,26.107
		c0,11.309-4.703,21.736-14.108,31.28c-9.405,9.546-22.549,16.783-39.43,21.716c-16.882,4.933-38.163,7.398-63.847,7.398
		c-45.099,0-76.327-5.775-93.69-17.324S207.04,318.379,204.751,300.574z"/>
</g>
<g>
	<polygon fill="#07A5FF" points="69.428,469.483 83.701,469.483 83.701,500.409 93.913,500.409 93.913,469.483 108.153,469.483 
		108.153,462.687 69.428,462.687 	"/>
	<path fill="#07A5FF" d="M145.082,475.667c-0.888-0.975-2.219-1.783-3.956-2.403c-1.725-0.616-3.685-0.929-5.826-0.929
		c-3.988,0-7.488,1.256-10.414,3.735v-13.384h-9.72v37.723h9.72v-13.758c0-2.22,0.273-3.913,0.812-5.033
		c0.53-1.103,1.379-1.938,2.524-2.485c1.164-0.557,2.508-0.839,3.994-0.839c1.288,0,2.37,0.218,3.218,0.646
		c0.829,0.42,1.415,0.991,1.74,1.697c0.333,0.726,0.502,2.502,0.502,5.278v14.494h9.72v-16.068c0-2.431-0.163-4.256-0.484-5.424
		C146.584,477.733,145.969,476.641,145.082,475.667z"/>
	<path fill="#07A5FF" d="M171.128,472.335c-4.654,0-8.561,1.297-11.612,3.854c-3.064,2.568-4.617,6.165-4.617,10.69
		c0,3.789,1.182,6.974,3.514,9.465c2.944,3.102,7.531,4.674,13.634,4.674c3.851,0,7.108-0.697,9.682-2.073
		c2.586-1.383,4.505-3.426,5.704-6.071l0.14-0.308l-9.719-1.263l-0.069,0.187c-0.481,1.294-1.197,2.243-2.128,2.819
		c-0.94,0.582-2.121,0.877-3.511,0.877c-2.052,0-3.787-0.574-5.156-1.707c-1.299-1.076-2.015-2.587-2.128-4.496h23.082l0.006-0.244
		c0.132-5.519-1.342-9.68-4.383-12.368C180.536,473.693,176.351,472.335,171.128,472.335z M165.014,484.116
		c0.035-1.746,0.656-3.151,1.849-4.182c1.259-1.089,2.882-1.641,4.824-1.641c1.813,0,3.372,0.523,4.632,1.556
		c1.193,0.978,1.854,2.412,1.964,4.267H165.014z"/>
	<path fill="#07A5FF" d="M212.667,472.335c-1.519,0-2.897,0.299-4.097,0.889c-1.077,0.529-2.284,1.575-3.594,3.112v-3.392h-9.063
		v27.465h9.72v-8.578c0-4.538,0.254-7.551,0.756-8.955c0.493-1.378,1.169-2.338,2.012-2.854c0.853-0.522,1.913-0.788,3.15-0.788
		c1.288,0,2.707,0.384,4.219,1.142l0.231,0.116l3.067-6.684l-0.227-0.104C216.871,472.796,214.793,472.335,212.667,472.335z"/>
	<path fill="#07A5FF" d="M269.795,473.563c-1.797-0.815-4.017-1.229-6.6-1.229c-2.035,0-3.976,0.365-5.77,1.084
		c-1.714,0.688-3.337,1.726-4.828,3.085c-1.048-1.357-2.382-2.394-3.97-3.082c-1.665-0.721-3.652-1.087-5.907-1.087
		c-4.054,0-7.621,1.337-10.611,3.975v-3.365h-8.998v27.465h9.72v-13.352c0-2.543,0.241-4.38,0.717-5.46
		c0.465-1.058,1.25-1.88,2.331-2.443c1.095-0.571,2.348-0.86,3.723-0.86c1.133,0,2.037,0.178,2.687,0.528
		c0.635,0.343,1.111,0.875,1.415,1.58c0.313,0.727,0.472,2.402,0.472,4.979v15.027h9.72V487.21c0-2.494,0.247-4.336,0.734-5.475
		c0.478-1.118,1.268-1.978,2.349-2.557c1.095-0.587,2.281-0.885,3.524-0.885c1.687,0,2.947,0.482,3.744,1.432
		c0.594,0.729,0.895,2.418,0.895,5.021v15.662h9.72v-17.49c0-2.603-0.331-4.522-0.984-5.708
		C272.982,475.612,271.607,474.386,269.795,473.563z"/>
	<path fill="#07A5FF" d="M319.223,486.601c0-4.106-1.732-7.552-5.148-10.238c-3.398-2.673-7.811-4.027-13.115-4.027
		c-3.43,0-6.581,0.596-9.366,1.771c-2.799,1.182-4.995,2.92-6.524,5.168c-1.531,2.25-2.308,4.612-2.308,7.021
		c0,3.135,0.777,5.836,2.309,8.027c1.532,2.189,3.794,3.873,6.727,5.003c2.914,1.123,6.019,1.692,9.228,1.692
		c5.195,0,9.569-1.372,13-4.078C317.475,494.22,319.223,490.741,319.223,486.601z M309.241,486.626c0,2.62-0.793,4.642-2.359,6.007
		c-1.575,1.374-3.557,2.071-5.889,2.071c-2.333,0-4.32-0.697-5.907-2.071c-1.576-1.366-2.375-3.37-2.375-5.956
		s0.799-4.59,2.375-5.956c1.586-1.374,3.574-2.071,5.907-2.071c2.333,0,4.314,0.697,5.889,2.071
		C308.447,482.086,309.241,484.073,309.241,486.626z"/>
	<path fill="#07A5FF" d="M372.038,492.726c-1.537,0.993-3.87,1.496-6.936,1.496c-2.89,0-5.211-0.567-6.899-1.685
		c-1.676-1.11-2.806-2.879-3.356-5.257l-0.048-0.209l-9.934,0.747l0.041,0.268c0.643,4.218,2.645,7.474,5.949,9.679
		c3.286,2.192,8.046,3.305,14.149,3.305c4.183,0,7.73-0.461,10.544-1.37c2.832-0.916,5.057-2.34,6.612-4.23
		c1.562-1.9,2.354-3.97,2.354-6.151c0-2.4-0.664-4.447-1.974-6.085c-1.301-1.626-3.123-2.924-5.416-3.858
		c-2.27-0.925-5.813-1.831-10.533-2.693c-4.672-0.854-7.644-1.679-8.833-2.452c-0.896-0.581-1.33-1.252-1.33-2.05
		c0-0.876,0.463-1.561,1.414-2.093c1.551-0.871,3.74-1.313,6.506-1.313c2.674,0,4.7,0.41,6.021,1.22
		c1.3,0.798,2.161,2.132,2.561,3.966l0.044,0.204l10.173-0.346l-0.011-0.252c-0.156-3.488-1.811-6.313-4.917-8.398
		c-3.08-2.066-7.714-3.114-13.772-3.114c-3.706,0-6.918,0.439-9.545,1.308c-2.646,0.874-4.704,2.168-6.117,3.847
		c-1.422,1.688-2.143,3.532-2.143,5.48c0,3.019,1.526,5.607,4.537,7.695c2.117,1.469,5.837,2.721,11.055,3.722
		c4.017,0.772,6.627,1.318,7.757,1.621c1.616,0.444,2.757,0.968,3.391,1.555c0.62,0.574,0.921,1.249,0.921,2.063
		C374.303,490.617,373.541,491.755,372.038,492.726z"/>
	<path fill="#07A5FF" d="M407.003,472.335c-4.654,0-8.561,1.297-11.611,3.854c-3.064,2.567-4.618,6.164-4.618,10.69
		c0,3.789,1.182,6.974,3.514,9.465c2.945,3.102,7.532,4.674,13.634,4.674c3.852,0,7.109-0.697,9.683-2.073
		c2.586-1.383,4.506-3.426,5.704-6.071l0.14-0.308l-9.72-1.263l-0.069,0.187c-0.48,1.295-1.196,2.243-2.128,2.819
		c-0.939,0.582-2.121,0.877-3.511,0.877c-2.053,0-3.787-0.574-5.156-1.707c-1.299-1.075-2.015-2.587-2.129-4.496h23.082l0.006-0.244
		c0.132-5.519-1.343-9.68-4.382-12.368C416.41,473.693,412.226,472.335,407.003,472.335z M400.888,484.116
		c0.035-1.746,0.656-3.152,1.849-4.182c1.261-1.089,2.884-1.641,4.824-1.641c1.813,0,3.371,0.523,4.632,1.556
		c1.193,0.978,1.854,2.412,1.964,4.267H400.888z"/>
	<path fill="#07A5FF" d="M448.54,472.335c-1.519,0-2.896,0.299-4.097,0.889c-1.076,0.529-2.283,1.574-3.594,3.112v-3.392h-9.063
		v27.465h9.72v-8.578c0-4.538,0.255-7.551,0.757-8.955c0.492-1.378,1.169-2.338,2.012-2.854c0.853-0.522,1.913-0.788,3.15-0.788
		c1.287,0,2.707,0.384,4.219,1.142l0.231,0.116l3.066-6.684l-0.227-0.104C452.744,472.796,450.667,472.335,448.54,472.335z"/>
	<path fill="#07A5FF" d="M475.315,486.852c-0.35,0.762-0.682,1.534-0.993,2.307c-0.105,0.303-0.345,0.89-0.711,1.75l-1.682-4.06
		l-6.563-13.762l-0.067-0.143h-10.249l14.304,27.465h8.604l13.917-27.101l0.187-0.364h-10.049L475.315,486.852z"/>
	<rect x="498.391" y="472.944" fill="#07A5FF" width="9.72" height="27.465"/>
	<rect x="498.391" y="462.687" fill="#07A5FF" width="9.72" height="7.102"/>
	<path fill="#07A5FF" d="M540.198,489.766c-0.442,1.809-1.203,3.097-2.261,3.827c-1.068,0.737-2.467,1.111-4.157,1.111
		c-2.264,0-4.087-0.644-5.422-1.912c-1.331-1.265-2.006-3.484-2.006-6.598c0-2.79,0.662-4.799,1.968-5.972
		c1.313-1.179,3.106-1.776,5.329-1.776c1.67,0,3.042,0.345,4.079,1.025c1.021,0.67,1.686,1.686,1.977,3.019l0.049,0.226l9.629-1.345
		l-0.111-0.293c-1.11-2.938-2.964-5.155-5.508-6.591c-2.532-1.428-5.979-2.152-10.246-2.152c-5.219,0-9.423,1.271-12.495,3.776
		c-3.087,2.517-4.652,6.08-4.652,10.591c0,4.459,1.56,8.001,4.636,10.527c3.061,2.515,7.215,3.789,12.348,3.789
		c4.51,0,8.163-0.841,10.86-2.5c2.711-1.667,4.569-4.167,5.523-7.43l0.082-0.28l-9.567-1.261L540.198,489.766z"/>
	<path fill="#07A5FF" d="M587.479,488.739c0.132-5.519-1.343-9.68-4.382-12.368c-3.03-2.678-7.215-4.036-12.438-4.036
		c-4.654,0-8.561,1.297-11.611,3.854c-3.064,2.567-4.618,6.164-4.618,10.69c0,3.789,1.182,6.974,3.514,9.465
		c2.945,3.102,7.532,4.674,13.634,4.674c3.852,0,7.109-0.697,9.683-2.073c2.586-1.383,4.506-3.426,5.704-6.071l0.14-0.308
		l-9.72-1.263l-0.069,0.187c-0.48,1.295-1.196,2.243-2.128,2.819c-0.939,0.582-2.121,0.877-3.511,0.877
		c-2.053,0-3.787-0.574-5.156-1.707c-1.299-1.075-2.015-2.587-2.129-4.496h23.082L587.479,488.739z M564.545,484.116
		c0.035-1.746,0.656-3.152,1.849-4.182c1.261-1.089,2.884-1.641,4.824-1.641c1.813,0,3.371,0.523,4.632,1.556
		c1.193,0.978,1.854,2.412,1.964,4.267H564.545z"/>
	<path fill="#07A5FF" d="M267.357,533.774c-2.267-0.925-5.811-1.83-10.532-2.693c-4.671-0.854-7.643-1.679-8.833-2.452
		c-0.895-0.581-1.33-1.252-1.33-2.05c0-0.876,0.462-1.561,1.415-2.093c1.551-0.871,3.739-1.313,6.505-1.313
		c2.675,0,4.701,0.41,6.021,1.22c1.3,0.798,2.162,2.132,2.561,3.966l0.044,0.204l10.173-0.346l-0.012-0.252
		c-0.156-3.488-1.811-6.313-4.917-8.398c-3.08-2.066-7.713-3.114-13.772-3.114c-3.707,0-6.918,0.439-9.545,1.308
		c-2.646,0.874-4.704,2.168-6.117,3.847c-1.421,1.688-2.142,3.533-2.142,5.48c0,3.019,1.526,5.607,4.537,7.695
		c2.118,1.469,5.837,2.721,11.054,3.722c4.018,0.773,6.628,1.318,7.757,1.621c1.616,0.444,2.756,0.967,3.391,1.555
		c0.62,0.574,0.921,1.249,0.921,2.063c0,1.274-0.762,2.412-2.265,3.383c-1.537,0.993-3.87,1.496-6.935,1.496
		c-2.89,0-5.211-0.567-6.9-1.685c-1.676-1.11-2.805-2.879-3.356-5.257l-0.048-0.209l-9.933,0.747l0.041,0.268
		c0.642,4.217,2.643,7.474,5.949,9.679c3.286,2.192,8.047,3.305,14.149,3.305c4.184,0,7.731-0.461,10.544-1.37
		c2.832-0.916,5.057-2.34,6.613-4.23c1.562-1.9,2.354-3.97,2.354-6.151c0-2.399-0.665-4.447-1.975-6.085
		C271.474,536.008,269.652,534.709,267.357,533.774z"/>
	<rect x="283.697" y="547.175" fill="#07A5FF" width="9.72" height="7.635"/>
	<path fill="#07A5FF" d="M331.212,517.65c-1.804-0.374-5.707-0.563-11.6-0.563h-15.836v37.723h10.212v-14.041h6.083
		c4.389,0,7.791-0.181,10.116-0.537c1.724-0.291,3.444-0.894,5.112-1.791c1.679-0.903,3.083-2.164,4.173-3.747
		c1.096-1.593,1.651-3.58,1.651-5.905c0-3.018-0.963-5.516-2.861-7.426C336.375,519.466,334.003,518.217,331.212,517.65z
		 M313.988,523.884h4.442c3.469,0,5.809,0.085,6.955,0.252c1.518,0.211,2.788,0.747,3.776,1.592
		c0.979,0.839,1.455,1.873,1.455,3.162c0,1.032-0.349,1.95-1.037,2.729c-0.699,0.791-1.682,1.381-2.92,1.755
		c-1.261,0.38-3.819,0.573-7.605,0.573h-5.065V523.884z"/>
	<rect x="341.213" y="547.175" fill="#07A5FF" width="9.72" height="7.635"/>
	<path fill="#07A5FF" d="M385.811,517.087h-10.576l-18.805,37.36l-0.182,0.362h10.867l3.971-8.455h18.913l4.199,8.455h11.132
		l-19.45-37.588L385.811,517.087z M386.64,539.583h-12.334l6.105-12.979L386.64,539.583z"/>
	<rect x="411.099" y="547.175" fill="#07A5FF" width="9.72" height="7.635"/>
</g>
</svg>
